<?xml version="1.0" encoding="UTF-8" standalone="no"?>
<!DOCTYPE svg PUBLIC "-//W3C//DTD SVG 1.1//EN"
 "http://www.w3.org/Graphics/SVG/1.1/DTD/svg11.dtd">
<!-- Generated by graphviz version 2.43.0 (0)
 -->
<!-- Title: autoir_deployment Pages: 1 -->
<svg width="485pt" height="360pt"
 viewBox="0.00 0.00 485.00 360.00" xmlns="http://www.w3.org/2000/svg" xmlns:xlink="http://www.w3.org/1999/xlink">
<g id="graph0" class="graph" transform="scale(1 1) rotate(0) translate(4 356)">
<title>autoir_deployment</title>
<polygon fill="white" stroke="transparent" points="-4,4 -4,-356 481,-356 481,4 -4,4"/>
<g id="clust1" class="cluster">
<title>cluster_cfn</title>
<path fill="none" stroke="black" d="M20,-8C20,-8 289,-8 289,-8 295,-8 301,-14 301,-20 301,-20 301,-332 301,-332 301,-338 295,-344 289,-344 289,-344 20,-344 20,-344 14,-344 8,-338 8,-332 8,-332 8,-20 8,-20 8,-14 14,-8 20,-8"/>
<text text-anchor="middle" x="154.5" y="-328.8" font-family="Times,serif" font-size="14.00">CloudFormation Stack: AutoIR&#45;Fargate</text>
</g>
<!-- ecs -->
<g id="node1" class="node">
<title>ecs</title>
<polygon fill="none" stroke="black" points="280.5,-139 123.5,-139 123.5,-103 280.5,-103 280.5,-139"/>
<text text-anchor="middle" x="202" y="-117.3" font-family="Times,serif" font-size="14.00">ECS Service: autoir</text>
</g>
<!-- logs -->
<g id="node3" class="node">
<title>logs</title>
<polygon fill="none" stroke="black" points="292.5,-52 35.5,-52 35.5,-48 31.5,-48 31.5,-44 35.5,-44 35.5,-24 31.5,-24 31.5,-20 35.5,-20 35.5,-16 292.5,-16 292.5,-52"/>
<polyline fill="none" stroke="black" points="35.5,-48 39.5,-48 39.5,-44 35.5,-44 "/>
<polyline fill="none" stroke="black" points="35.5,-24 39.5,-24 39.5,-20 35.5,-20 "/>
<text text-anchor="middle" x="164" y="-30.3" font-family="Times,serif" font-size="14.00">CloudWatch Logs: /autoir/daemon</text>
</g>
<!-- ecs&#45;&gt;logs -->
<g id="edge4" class="edge">
<title>ecs&#45;&gt;logs</title>
<path fill="none" stroke="black" d="M194.31,-102.8C189,-90.93 181.85,-74.93 175.82,-61.45"/>
<polygon fill="black" stroke="black" points="178.96,-59.88 171.68,-52.18 172.56,-62.73 178.96,-59.88"/>
<text text-anchor="middle" x="214" y="-73.8" font-family="Times,serif" font-size="14.00">awslogs</text>
</g>
<!-- task -->
<g id="node2" class="node">
<title>task</title>
<polygon fill="none" stroke="black" points="263.5,-226 140.5,-226 140.5,-190 263.5,-190 263.5,-226"/>
<text text-anchor="middle" x="202" y="-204.3" font-family="Times,serif" font-size="14.00">Task Definition</text>
</g>
<!-- task&#45;&gt;ecs -->
<g id="edge2" class="edge">
<title>task&#45;&gt;ecs</title>
<path fill="none" stroke="black" d="M202,-189.8C202,-178.16 202,-162.55 202,-149.24"/>
<polygon fill="black" stroke="black" points="205.5,-149.18 202,-139.18 198.5,-149.18 205.5,-149.18"/>
<text text-anchor="middle" x="216.5" y="-160.8" font-family="Times,serif" font-size="14.00">Run</text>
</g>
<!-- role -->
<g id="node4" class="node">
<title>role</title>
<polygon fill="none" stroke="black" points="292,-313 96,-313 96,-317 84,-317 84,-277 292,-277 292,-313"/>
<polyline fill="none" stroke="black" points="84,-313 96,-313 "/>
<text text-anchor="middle" x="188" y="-291.3" font-family="Times,serif" font-size="14.00">IAM Roles (task/execution)</text>
</g>
<!-- role&#45;&gt;task -->
<g id="edge3" class="edge">
<title>role&#45;&gt;task</title>
<path fill="none" stroke="black" d="M190.83,-276.8C192.75,-265.16 195.32,-249.55 197.51,-236.24"/>
<polygon fill="black" stroke="black" points="201,-236.61 199.17,-226.18 194.09,-235.47 201,-236.61"/>
</g>
<!-- ecr -->
<g id="node5" class="node">
<title>ecr</title>
<path fill="none" stroke="black" d="M455.5,-309.73C455.5,-311.53 423,-313 383,-313 343,-313 310.5,-311.53 310.5,-309.73 310.5,-309.73 310.5,-280.27 310.5,-280.27 310.5,-278.47 343,-277 383,-277 423,-277 455.5,-278.47 455.5,-280.27 455.5,-280.27 455.5,-309.73 455.5,-309.73"/>
<path fill="none" stroke="black" d="M455.5,-309.73C455.5,-307.92 423,-306.45 383,-306.45 343,-306.45 310.5,-307.92 310.5,-309.73"/>
<text text-anchor="middle" x="383" y="-291.3" font-family="Times,serif" font-size="14.00">ECR: autoir:latest</text>
</g>
<!-- ecr&#45;&gt;task -->
<g id="edge1" class="edge">
<title>ecr&#45;&gt;task</title>
<path fill="none" stroke="black" d="M346.37,-276.8C317.82,-263.39 278.02,-244.7 247.44,-230.34"/>
<polygon fill="black" stroke="black" points="248.8,-227.11 238.26,-226.03 245.83,-233.45 248.8,-227.11"/>
<text text-anchor="middle" x="325.5" y="-247.8" font-family="Times,serif" font-size="14.00">Image</text>
</g>
<!-- sg -->
<g id="node6" class="node">
<title>sg</title>
<polygon fill="none" stroke="black" points="477,-226 309,-226 309,-190 477,-190 477,-226"/>
<text text-anchor="middle" x="393" y="-204.3" font-family="Times,serif" font-size="14.00">VPC + Subnets + SG</text>
</g>
<!-- sg&#45;&gt;ecs -->
<g id="edge5" class="edge">
<title>sg&#45;&gt;ecs</title>
<path fill="none" stroke="black" d="M354.35,-189.8C324.09,-176.33 281.86,-157.54 249.53,-143.15"/>
<polygon fill="black" stroke="black" points="250.83,-139.9 240.27,-139.03 247.98,-146.29 250.83,-139.9"/>
</g>
</g>
</svg>
