<?xml version="1.0" encoding="UTF-8" standalone="no"?>
<!DOCTYPE svg PUBLIC "-//W3C//DTD SVG 1.1//EN"
 "http://www.w3.org/Graphics/SVG/1.1/DTD/svg11.dtd">
<!-- Generated by graphviz version 2.43.0 (0)
 -->
<!-- Title: autoir_overview Pages: 1 -->
<svg width="1187pt" height="698pt"
 viewBox="0.00 0.00 1187.00 698.00" xmlns="http://www.w3.org/2000/svg" xmlns:xlink="http://www.w3.org/1999/xlink">
<g id="graph0" class="graph" transform="scale(1 1) rotate(0) translate(4 694)">
<title>autoir_overview</title>
<polygon fill="white" stroke="transparent" points="-4,4 -4,-694 1183,-694 1183,4 -4,4"/>
<g id="clust1" class="cluster">
<title>cluster_aws</title>
<path fill="none" stroke="#ff9900" d="M20,-393C20,-393 523,-393 523,-393 529,-393 535,-399 535,-405 535,-405 535,-670 535,-670 535,-676 529,-682 523,-682 523,-682 20,-682 20,-682 14,-682 8,-676 8,-670 8,-670 8,-405 8,-405 8,-399 14,-393 20,-393"/>
<text text-anchor="middle" x="271.5" y="-670" font-family="Inter,Helvetica,Arial,sans-serif" font-size="10.00">AWS</text>
</g>
<g id="clust2" class="cluster">
<title>cluster_autoir</title>
<path fill="none" stroke="#00b3e6" d="M336,-256C336,-256 980.5,-256 980.5,-256 986.5,-256 992.5,-262 992.5,-268 992.5,-268 992.5,-373 992.5,-373 992.5,-379 986.5,-385 980.5,-385 980.5,-385 336,-385 336,-385 330,-385 324,-379 324,-373 324,-373 324,-268 324,-268 324,-262 330,-256 336,-256"/>
<text text-anchor="middle" x="658.25" y="-373" font-family="Inter,Helvetica,Arial,sans-serif" font-size="10.00">AutoIR</text>
</g>
<g id="clust3" class="cluster">
<title>cluster_data</title>
<path fill="none" stroke="#33aa55" d="M822,-141C822,-141 997,-141 997,-141 1003,-141 1009,-147 1009,-153 1009,-153 1009,-236 1009,-236 1009,-242 1003,-248 997,-248 997,-248 822,-248 822,-248 816,-248 810,-242 810,-236 810,-236 810,-153 810,-153 810,-147 816,-141 822,-141"/>
<text text-anchor="middle" x="909.5" y="-236" font-family="Inter,Helvetica,Arial,sans-serif" font-size="10.00">Data</text>
</g>
<g id="clust4" class="cluster">
<title>cluster_alerts</title>
<path fill="none" stroke="#dd4477" d="M851.5,-8C851.5,-8 967.5,-8 967.5,-8 973.5,-8 979.5,-14 979.5,-20 979.5,-20 979.5,-121 979.5,-121 979.5,-127 973.5,-133 967.5,-133 967.5,-133 851.5,-133 851.5,-133 845.5,-133 839.5,-127 839.5,-121 839.5,-121 839.5,-20 839.5,-20 839.5,-14 845.5,-8 851.5,-8"/>
<text text-anchor="middle" x="909.5" y="-121" font-family="Inter,Helvetica,Arial,sans-serif" font-size="10.00">Alerts</text>
</g>
<g id="clust5" class="cluster">
<title>cluster_llm</title>
<path fill="none" stroke="#6666ff" d="M1042,-226C1042,-226 1159,-226 1159,-226 1165,-226 1171,-232 1171,-238 1171,-238 1171,-341 1171,-341 1171,-347 1165,-353 1159,-353 1159,-353 1042,-353 1042,-353 1036,-353 1030,-347 1030,-341 1030,-341 1030,-238 1030,-238 1030,-232 1036,-226 1042,-226"/>
<text text-anchor="middle" x="1100.5" y="-341" font-family="Inter,Helvetica,Arial,sans-serif" font-size="10.00">LLM Providers</text>
</g>
<!-- cw -->
<g id="node1" class="node">
<title>cw</title>
<polygon fill="none" stroke="black" points="184.5,-493 44.5,-493 44.5,-489 40.5,-489 40.5,-485 44.5,-485 44.5,-465 40.5,-465 40.5,-461 44.5,-461 44.5,-457 184.5,-457 184.5,-493"/>
<polyline fill="none" stroke="black" points="44.5,-489 48.5,-489 48.5,-485 44.5,-485 "/>
<polyline fill="none" stroke="black" points="44.5,-465 48.5,-465 48.5,-461 44.5,-461 "/>
<text text-anchor="middle" x="114.5" y="-471.3" font-family="Times,serif" font-size="14.00">CloudWatch Logs</text>
</g>
<!-- cli -->
<g id="node7" class="node">
<title>cli</title>
<polygon fill="none" stroke="black" points="583,-358 332,-358 332,-320 583,-320 583,-358"/>
<text text-anchor="middle" x="457.5" y="-342.8" font-family="Times,serif" font-size="14.00">CLI / TUI</text>
<text text-anchor="middle" x="457.5" y="-327.8" font-family="Times,serif" font-size="14.00">(Combined Dashboard + Search)</text>
</g>
<!-- cw&#45;&gt;cli -->
<g id="edge15" class="edge">
<title>cw&#45;&gt;cli</title>
<path fill="none" stroke="black" stroke-dasharray="1,5" d="M184.97,-483.68C227.71,-484.95 280.53,-478.52 314,-446 332.45,-428.07 307.59,-408.81 324,-389 333.24,-377.85 345.24,-369.18 358.25,-362.44"/>
<polygon fill="black" stroke="black" points="359.87,-365.55 367.39,-358.08 356.86,-359.23 359.87,-365.55"/>
<text text-anchor="middle" x="272.5" y="-484.8" font-family="Times,serif" font-size="14.00">dashboard</text>
</g>
<!-- daemon -->
<g id="node8" class="node">
<title>daemon</title>
<polygon fill="none" stroke="black" points="546,-302 369,-302 369,-264 546,-264 546,-302"/>
<text text-anchor="middle" x="457.5" y="-286.8" font-family="Times,serif" font-size="14.00">Daemon</text>
<text text-anchor="middle" x="457.5" y="-271.8" font-family="Times,serif" font-size="14.00">(ingest, analyze, alert)</text>
</g>
<!-- cw&#45;&gt;daemon -->
<g id="edge1" class="edge">
<title>cw&#45;&gt;daemon</title>
<path fill="none" stroke="#555555" d="M184.57,-461.43C194.53,-457.91 204.33,-453.51 213,-448 223.37,-441.41 220.77,-433.82 231,-427 263.27,-405.47 289.48,-430.06 314,-400 339.16,-369.15 297.24,-340.47 324,-311 333.48,-300.56 345.78,-293.48 359.07,-288.75"/>
<polygon fill="#555555" stroke="#555555" points="360.37,-292.01 368.89,-285.71 358.3,-285.33 360.37,-292.01"/>
<text text-anchor="middle" x="272.5" y="-430.8" font-family="Times,serif" font-size="14.00">tail /aws/...</text>
</g>
<!-- sagemaker -->
<g id="node2" class="node">
<title>sagemaker</title>
<polygon fill="none" stroke="black" points="213,-439 16,-439 16,-401 213,-401 213,-439"/>
<text text-anchor="middle" x="114.5" y="-423.8" font-family="Times,serif" font-size="14.00">SageMaker</text>
<text text-anchor="middle" x="114.5" y="-408.8" font-family="Times,serif" font-size="14.00">(Serverless Embeddings)</text>
</g>
<!-- sagemaker&#45;&gt;daemon -->
<g id="edge3" class="edge">
<title>sagemaker&#45;&gt;daemon</title>
<path fill="none" stroke="black" d="M132.14,-400.66C152.86,-377.94 190.5,-340.94 231,-322 270.65,-303.46 317.93,-293.65 358.94,-288.5"/>
<polygon fill="black" stroke="black" points="359.43,-291.96 368.95,-287.32 358.6,-285.01 359.43,-291.96"/>
<text text-anchor="middle" x="272.5" y="-325.8" font-family="Times,serif" font-size="14.00">vector(384)</text>
</g>
<!-- ecs -->
<g id="node3" class="node">
<title>ecs</title>
<polygon fill="none" stroke="black" points="527,-566 388,-566 388,-528 527,-528 527,-566"/>
<text text-anchor="middle" x="457.5" y="-550.8" font-family="Times,serif" font-size="14.00">ECS Fargate</text>
<text text-anchor="middle" x="457.5" y="-535.8" font-family="Times,serif" font-size="14.00">(AutoIR Daemon)</text>
</g>
<!-- cf -->
<g id="node4" class="node">
<title>cf</title>
<polygon fill="none" stroke="black" points="180,-547 177,-551 156,-551 153,-547 49,-547 49,-511 180,-511 180,-547"/>
<text text-anchor="middle" x="114.5" y="-525.3" font-family="Times,serif" font-size="14.00">CloudFormation</text>
</g>
<!-- cf&#45;&gt;ecs -->
<g id="edge7" class="edge">
<title>cf&#45;&gt;ecs</title>
<path fill="none" stroke="black" stroke-dasharray="5,2" d="M180.04,-532.41C236.17,-535.37 317.67,-539.67 377.65,-542.84"/>
<polygon fill="black" stroke="black" points="377.66,-546.34 387.84,-543.38 378.03,-539.35 377.66,-546.34"/>
<text text-anchor="middle" x="272.5" y="-542.8" font-family="Times,serif" font-size="14.00">stack</text>
</g>
<!-- ecr -->
<g id="node5" class="node">
<title>ecr</title>
<path fill="none" stroke="black" d="M141.5,-651.73C141.5,-653.53 129.4,-655 114.5,-655 99.6,-655 87.5,-653.53 87.5,-651.73 87.5,-651.73 87.5,-622.27 87.5,-622.27 87.5,-620.47 99.6,-619 114.5,-619 129.4,-619 141.5,-620.47 141.5,-622.27 141.5,-622.27 141.5,-651.73 141.5,-651.73"/>
<path fill="none" stroke="black" d="M141.5,-651.73C141.5,-649.92 129.4,-648.45 114.5,-648.45 99.6,-648.45 87.5,-649.92 87.5,-651.73"/>
<text text-anchor="middle" x="114.5" y="-633.3" font-family="Times,serif" font-size="14.00">ECR</text>
</g>
<!-- ecr&#45;&gt;ecs -->
<g id="edge8" class="edge">
<title>ecr&#45;&gt;ecs</title>
<path fill="none" stroke="black" stroke-dasharray="5,2" d="M141.69,-630.09C191.54,-616.93 301.85,-587.82 377.7,-567.8"/>
<polygon fill="black" stroke="black" points="378.92,-571.1 387.7,-565.16 377.13,-564.33 378.92,-571.1"/>
<text text-anchor="middle" x="272.5" y="-608.8" font-family="Times,serif" font-size="14.00">image</text>
</g>
<!-- iam -->
<g id="node6" class="node">
<title>iam</title>
<polygon fill="none" stroke="black" points="141.5,-601 99.5,-601 99.5,-605 87.5,-605 87.5,-565 141.5,-565 141.5,-601"/>
<polyline fill="none" stroke="black" points="87.5,-601 99.5,-601 "/>
<text text-anchor="middle" x="114.5" y="-579.3" font-family="Times,serif" font-size="14.00">IAM</text>
</g>
<!-- iam&#45;&gt;ecs -->
<g id="edge9" class="edge">
<title>iam&#45;&gt;ecs</title>
<path fill="none" stroke="black" stroke-dasharray="5,2" d="M141.69,-580.23C191.54,-574.97 301.85,-563.33 377.7,-555.32"/>
<polygon fill="black" stroke="black" points="378.12,-558.79 387.7,-554.26 377.38,-551.83 378.12,-558.79"/>
</g>
<!-- cli&#45;&gt;ecs -->
<g id="edge6" class="edge">
<title>cli&#45;&gt;ecs</title>
<path fill="none" stroke="black" stroke-dasharray="5,2" d="M457.5,-358.2C457.5,-394.72 457.5,-474.44 457.5,-517.69"/>
<polygon fill="black" stroke="black" points="454,-517.85 457.5,-527.85 461,-517.85 454,-517.85"/>
<text text-anchor="middle" x="447" y="-439.3" font-family="Times,serif" font-size="14.00">deploy/manage</text>
</g>
<!-- tidb -->
<g id="node10" class="node">
<title>tidb</title>
<path fill="none" stroke="black" d="M1001,-214.76C1001,-218.41 959.99,-221.38 909.5,-221.38 859.01,-221.38 818,-218.41 818,-214.76 818,-214.76 818,-155.24 818,-155.24 818,-151.59 859.01,-148.62 909.5,-148.62 959.99,-148.62 1001,-151.59 1001,-155.24 1001,-155.24 1001,-214.76 1001,-214.76"/>
<path fill="none" stroke="black" d="M1001,-214.76C1001,-211.11 959.99,-208.15 909.5,-208.15 859.01,-208.15 818,-211.11 818,-214.76"/>
<text text-anchor="middle" x="909.5" y="-196.3" font-family="Times,serif" font-size="14.00">TiDB</text>
<text text-anchor="middle" x="909.5" y="-181.3" font-family="Times,serif" font-size="14.00">VECTOR(384) log store</text>
<text text-anchor="middle" x="909.5" y="-166.3" font-family="Times,serif" font-size="14.00">+ incidents</text>
</g>
<!-- cli&#45;&gt;tidb -->
<g id="edge5" class="edge">
<title>cli&#45;&gt;tidb</title>
<path fill="none" stroke="black" d="M570.59,-319.92C574.98,-317.29 579.15,-314.33 583,-311 599.92,-296.37 584.16,-278.72 601,-264 669.41,-204.18 712.16,-240.31 800,-217 802.62,-216.3 805.28,-215.59 807.96,-214.86"/>
<polygon fill="black" stroke="black" points="809.02,-218.2 817.73,-212.17 807.16,-211.45 809.02,-218.2"/>
<text text-anchor="middle" x="700.5" y="-267.8" font-family="Times,serif" font-size="14.00">search/query</text>
</g>
<!-- daemon&#45;&gt;sagemaker -->
<g id="edge2" class="edge">
<title>daemon&#45;&gt;sagemaker</title>
<path fill="none" stroke="#555555" d="M368.78,-288.23C352.41,-292.68 336.54,-299.81 324,-311 313.51,-320.36 323.65,-330.78 314,-341 296.09,-359.96 237.96,-381.93 189.2,-397.88"/>
<polygon fill="#555555" stroke="#555555" points="188.03,-394.58 179.59,-400.98 190.18,-401.24 188.03,-394.58"/>
<text text-anchor="middle" x="272.5" y="-384.8" font-family="Times,serif" font-size="14.00">embed text</text>
</g>
<!-- llmclient -->
<g id="node9" class="node">
<title>llmclient</title>
<polygon fill="none" stroke="black" points="984.5,-302 834.5,-302 834.5,-264 984.5,-264 984.5,-302"/>
<text text-anchor="middle" x="909.5" y="-286.8" font-family="Times,serif" font-size="14.00">LLM Client</text>
<text text-anchor="middle" x="909.5" y="-271.8" font-family="Times,serif" font-size="14.00">(Kimi K2 / OpenAI)</text>
</g>
<!-- daemon&#45;&gt;llmclient -->
<g id="edge10" class="edge">
<title>daemon&#45;&gt;llmclient</title>
<path fill="none" stroke="black" d="M546.07,-283C626.33,-283 744.41,-283 823.76,-283"/>
<polygon fill="black" stroke="black" points="824.21,-286.5 834.21,-283 824.21,-279.5 824.21,-286.5"/>
<text text-anchor="middle" x="700.5" y="-286.8" font-family="Times,serif" font-size="14.00">incident analysis</text>
</g>
<!-- daemon&#45;&gt;tidb -->
<g id="edge4" class="edge">
<title>daemon&#45;&gt;tidb</title>
<path fill="none" stroke="black" d="M483.64,-263.88C510.9,-244.35 556.5,-215.09 601,-202 668.05,-182.28 746.81,-178.27 807.83,-179.06"/>
<polygon fill="black" stroke="black" points="807.79,-182.56 817.85,-179.24 807.91,-175.56 807.79,-182.56"/>
<text text-anchor="middle" x="700.5" y="-205.8" font-family="Times,serif" font-size="14.00">INSERT logs + embeddings</text>
</g>
<!-- slack -->
<g id="node11" class="node">
<title>slack</title>
<polygon fill="none" stroke="black" points="971.5,-106 847.5,-106 847.5,-70 971.5,-70 971.5,-106"/>
<text text-anchor="middle" x="909.5" y="-84.3" font-family="Times,serif" font-size="14.00">Slack Webhook</text>
</g>
<!-- daemon&#45;&gt;slack -->
<g id="edge13" class="edge">
<title>daemon&#45;&gt;slack</title>
<path fill="none" stroke="black" d="M474.86,-263.97C499.43,-236.66 548.58,-186.7 601,-160 676.48,-121.56 772.84,-103.29 837.4,-94.85"/>
<polygon fill="black" stroke="black" points="837.99,-98.31 847.47,-93.58 837.11,-91.36 837.99,-98.31"/>
<text text-anchor="middle" x="700.5" y="-163.8" font-family="Times,serif" font-size="14.00">alerts</text>
</g>
<!-- sns -->
<g id="node12" class="node">
<title>sns</title>
<polygon fill="none" stroke="black" points="964,-52 855,-52 855,-16 964,-16 964,-52"/>
<text text-anchor="middle" x="909.5" y="-30.3" font-family="Times,serif" font-size="14.00">Amazon SNS</text>
</g>
<!-- daemon&#45;&gt;sns -->
<g id="edge14" class="edge">
<title>daemon&#45;&gt;sns</title>
<path fill="none" stroke="black" d="M466.08,-263.7C483.24,-222.79 529.25,-127.47 601,-83 675.36,-36.91 778.6,-29.51 844.48,-30.3"/>
<polygon fill="black" stroke="black" points="844.66,-33.81 854.73,-30.5 844.79,-26.81 844.66,-33.81"/>
<text text-anchor="middle" x="700.5" y="-86.8" font-family="Times,serif" font-size="14.00">alerts</text>
</g>
<!-- kimi -->
<g id="node13" class="node">
<title>kimi</title>
<polygon fill="none" stroke="black" points="1163,-326 1038,-326 1038,-288 1163,-288 1163,-326"/>
<text text-anchor="middle" x="1100.5" y="-310.8" font-family="Times,serif" font-size="14.00">Kimi K2</text>
<text text-anchor="middle" x="1100.5" y="-295.8" font-family="Times,serif" font-size="14.00">(EC2 endpoint)</text>
</g>
<!-- llmclient&#45;&gt;kimi -->
<g id="edge11" class="edge">
<title>llmclient&#45;&gt;kimi</title>
<path fill="none" stroke="black" stroke-dasharray="5,2" d="M984.66,-292.42C998.8,-294.21 1013.59,-296.09 1027.66,-297.88"/>
<polygon fill="black" stroke="black" points="1027.4,-301.37 1037.76,-299.16 1028.28,-294.43 1027.4,-301.37"/>
</g>
<!-- openai -->
<g id="node14" class="node">
<title>openai</title>
<polygon fill="none" stroke="black" points="1135,-270 1066,-270 1066,-234 1135,-234 1135,-270"/>
<text text-anchor="middle" x="1100.5" y="-248.3" font-family="Times,serif" font-size="14.00">OpenAI</text>
</g>
<!-- llmclient&#45;&gt;openai -->
<g id="edge12" class="edge">
<title>llmclient&#45;&gt;openai</title>
<path fill="none" stroke="black" stroke-dasharray="5,2" d="M984.66,-270.84C1008.83,-266.87 1034.87,-262.6 1056.03,-259.13"/>
<polygon fill="black" stroke="black" points="1056.69,-262.57 1066,-257.5 1055.56,-255.66 1056.69,-262.57"/>
</g>
</g>
</svg>
