<?xml version="1.0" encoding="UTF-8" standalone="no"?>
<!DOCTYPE svg PUBLIC "-//W3C//DTD SVG 1.1//EN"
 "http://www.w3.org/Graphics/SVG/1.1/DTD/svg11.dtd">
<!-- Generated by graphviz version 2.43.0 (0)
 -->
<!-- Title: autoir_pipeline Pages: 1 -->
<svg width="726pt" height="178pt"
 viewBox="0.00 0.00 726.00 178.00" xmlns="http://www.w3.org/2000/svg" xmlns:xlink="http://www.w3.org/1999/xlink">
<g id="graph0" class="graph" transform="scale(1 1) rotate(0) translate(4 174)">
<title>autoir_pipeline</title>
<polygon fill="white" stroke="transparent" points="-4,4 -4,-174 722,-174 722,4 -4,4"/>
<!-- ingest -->
<g id="node1" class="node">
<title>ingest</title>
<polygon fill="none" stroke="black" points="140,-170 0,-170 0,-132 140,-132 140,-170"/>
<text text-anchor="middle" x="70" y="-154.8" font-family="Times,serif" font-size="14.00">Ingest</text>
<text text-anchor="middle" x="70" y="-139.8" font-family="Times,serif" font-size="14.00">(CloudWatch tail)</text>
</g>
<!-- embed -->
<g id="node2" class="node">
<title>embed</title>
<polygon fill="none" stroke="black" points="391,-170 283,-170 283,-132 391,-132 391,-170"/>
<text text-anchor="middle" x="337" y="-154.8" font-family="Times,serif" font-size="14.00">Embeddings</text>
<text text-anchor="middle" x="337" y="-139.8" font-family="Times,serif" font-size="14.00">(SageMaker)</text>
</g>
<!-- ingest&#45;&gt;embed -->
<g id="edge1" class="edge">
<title>ingest&#45;&gt;embed</title>
<path fill="none" stroke="black" d="M140.28,-151C181.19,-151 232.61,-151 272.47,-151"/>
<polygon fill="black" stroke="black" points="272.6,-154.5 282.6,-151 272.6,-147.5 272.6,-154.5"/>
<text text-anchor="middle" x="193" y="-154.8" font-family="Times,serif" font-size="14.00">messages</text>
</g>
<!-- store -->
<g id="node3" class="node">
<title>store</title>
<path fill="none" stroke="black" d="M718,-116.48C718,-119.11 683.26,-121.25 640.5,-121.25 597.74,-121.25 563,-119.11 563,-116.48 563,-116.48 563,-73.52 563,-73.52 563,-70.89 597.74,-68.75 640.5,-68.75 683.26,-68.75 718,-70.89 718,-73.52 718,-73.52 718,-116.48 718,-116.48"/>
<path fill="none" stroke="black" d="M718,-116.48C718,-113.84 683.26,-111.7 640.5,-111.7 597.74,-111.7 563,-113.84 563,-116.48"/>
<text text-anchor="middle" x="640.5" y="-98.8" font-family="Times,serif" font-size="14.00">Store</text>
<text text-anchor="middle" x="640.5" y="-83.8" font-family="Times,serif" font-size="14.00">TiDB VECTOR(384)</text>
</g>
<!-- embed&#45;&gt;store -->
<g id="edge2" class="edge">
<title>embed&#45;&gt;store</title>
<path fill="none" stroke="black" d="M391.24,-141.81C433.08,-134.51 492.81,-123.91 545,-114 547.64,-113.5 550.33,-112.98 553.04,-112.46"/>
<polygon fill="black" stroke="black" points="553.79,-115.88 562.94,-110.54 552.45,-109.01 553.79,-115.88"/>
<text text-anchor="middle" x="495.5" y="-134.8" font-family="Times,serif" font-size="14.00">vector(384)</text>
</g>
<!-- search -->
<g id="node4" class="node">
<title>search</title>
<polygon fill="none" stroke="black" points="406,-114 268,-114 268,-76 406,-76 406,-114"/>
<text text-anchor="middle" x="337" y="-98.8" font-family="Times,serif" font-size="14.00">Search</text>
<text text-anchor="middle" x="337" y="-83.8" font-family="Times,serif" font-size="14.00">(Log Search TUI)</text>
</g>
<!-- search&#45;&gt;store -->
<g id="edge3" class="edge">
<title>search&#45;&gt;store</title>
<path fill="none" stroke="black" d="M416.09,-95C457.96,-95 509.65,-95 552.76,-95"/>
<polygon fill="black" stroke="black" points="416.04,-91.5 406.04,-95 416.04,-98.5 416.04,-91.5"/>
<polygon fill="black" stroke="black" points="552.95,-98.5 562.95,-95 552.95,-91.5 552.95,-98.5"/>
<text text-anchor="middle" x="495.5" y="-98.8" font-family="Times,serif" font-size="14.00">query vectors</text>
</g>
<!-- analysis -->
<g id="node5" class="node">
<title>analysis</title>
<polygon fill="none" stroke="black" points="428,-48 246,-48 246,-10 428,-10 428,-48"/>
<text text-anchor="middle" x="337" y="-32.8" font-family="Times,serif" font-size="14.00">Analysis</text>
<text text-anchor="middle" x="337" y="-17.8" font-family="Times,serif" font-size="14.00">(LLM: Kimi K2/OpenAI)</text>
</g>
<!-- analysis&#45;&gt;store -->
<g id="edge4" class="edge">
<title>analysis&#45;&gt;store</title>
<path fill="none" stroke="black" d="M434.64,-50.16C472.53,-58.45 515.67,-67.89 552.56,-75.97"/>
<polygon fill="black" stroke="black" points="435.32,-46.72 424.8,-48 433.82,-53.56 435.32,-46.72"/>
<polygon fill="black" stroke="black" points="552.28,-79.49 562.79,-78.21 553.77,-72.65 552.28,-79.49"/>
<text text-anchor="middle" x="495.5" y="-77.8" font-family="Times,serif" font-size="14.00">context</text>
</g>
<!-- alerts -->
<g id="node6" class="node">
<title>alerts</title>
<polygon fill="none" stroke="black" points="691,-38 590,-38 590,0 691,0 691,-38"/>
<text text-anchor="middle" x="640.5" y="-22.8" font-family="Times,serif" font-size="14.00">Alerts</text>
<text text-anchor="middle" x="640.5" y="-7.8" font-family="Times,serif" font-size="14.00">(Slack/SNS)</text>
</g>
<!-- analysis&#45;&gt;alerts -->
<g id="edge5" class="edge">
<title>analysis&#45;&gt;alerts</title>
<path fill="none" stroke="black" d="M428.13,-20.96C434.17,-20.58 440.17,-20.26 446,-20 490.64,-18.03 541.12,-17.83 579.33,-18.1"/>
<polygon fill="black" stroke="black" points="579.73,-21.61 589.76,-18.19 579.79,-14.61 579.73,-21.61"/>
<text text-anchor="middle" x="495.5" y="-23.8" font-family="Times,serif" font-size="14.00">incidents</text>
</g>
</g>
</svg>
