<?xml version="1.0" encoding="UTF-8" standalone="no"?>
<!DOCTYPE svg PUBLIC "-//W3C//DTD SVG 1.1//EN"
 "http://www.w3.org/Graphics/SVG/1.1/DTD/svg11.dtd">
<!-- Generated by graphviz version 2.43.0 (0)
 -->
<!-- Title: autoir_search_ui Pages: 1 -->
<svg width="861pt" height="98pt"
 viewBox="0.00 0.00 861.00 98.00" xmlns="http://www.w3.org/2000/svg" xmlns:xlink="http://www.w3.org/1999/xlink">
<g id="graph0" class="graph" transform="scale(1 1) rotate(0) translate(4 94)">
<title>autoir_search_ui</title>
<polygon fill="white" stroke="transparent" points="-4,4 -4,-94 857,-94 857,4 -4,4"/>
<!-- title -->
<g id="node1" class="node">
<title>title</title>
<polygon fill="none" stroke="black" points="79,-63 0,-63 0,-27 79,-27 79,-63"/>
<text text-anchor="middle" x="39.5" y="-41.3" font-family="Times,serif" font-size="14.00">Title Bar</text>
</g>
<!-- searchbox -->
<g id="node2" class="node">
<title>searchbox</title>
<polygon fill="none" stroke="black" points="247.5,-90 149.5,-90 149.5,-54 247.5,-54 247.5,-90"/>
<text text-anchor="middle" x="198.5" y="-68.3" font-family="Times,serif" font-size="14.00">Search Box</text>
</g>
<!-- title&#45;&gt;searchbox -->
<g id="edge1" class="edge">
<title>title&#45;&gt;searchbox</title>
<path fill="none" stroke="black" d="M79.31,-51.67C97.41,-54.79 119.33,-58.56 139.35,-62"/>
<polygon fill="black" stroke="black" points="138.86,-65.47 149.31,-63.71 140.05,-58.57 138.86,-65.47"/>
</g>
<!-- status -->
<g id="node4" class="node">
<title>status</title>
<polygon fill="none" stroke="black" points="282,-36 115,-36 115,0 282,0 282,-36"/>
<text text-anchor="middle" x="198.5" y="-14.3" font-family="Times,serif" font-size="14.00">Service Status Cards</text>
</g>
<!-- title&#45;&gt;status -->
<g id="edge3" class="edge">
<title>title&#45;&gt;status</title>
<path fill="none" stroke="black" d="M79.31,-38.33C87.23,-36.96 95.87,-35.48 104.77,-33.95"/>
<polygon fill="black" stroke="black" points="105.64,-37.35 114.91,-32.2 104.46,-30.45 105.64,-37.35"/>
</g>
<!-- results -->
<g id="node3" class="node">
<title>results</title>
<polygon fill="none" stroke="black" points="654,-90 541,-90 541,-54 654,-54 654,-90"/>
<text text-anchor="middle" x="597.5" y="-68.3" font-family="Times,serif" font-size="14.00">Results Table</text>
</g>
<!-- searchbox&#45;&gt;results -->
<g id="edge2" class="edge">
<title>searchbox&#45;&gt;results</title>
<path fill="none" stroke="black" d="M247.78,-72C318.58,-72 450.78,-72 530.5,-72"/>
<polygon fill="black" stroke="black" points="530.91,-75.5 540.91,-72 530.91,-68.5 530.91,-75.5"/>
</g>
<!-- help -->
<g id="node7" class="node">
<title>help</title>
<polygon fill="none" stroke="black" points="853,-63 690,-63 690,-27 853,-27 853,-63"/>
<text text-anchor="middle" x="771.5" y="-41.3" font-family="Times,serif" font-size="14.00">Hotkeys: Enter/r/d/q</text>
</g>
<!-- results&#45;&gt;help -->
<g id="edge6" class="edge">
<title>results&#45;&gt;help</title>
<path fill="none" stroke="black" d="M654.34,-63.23C662.61,-61.94 671.3,-60.57 680.06,-59.2"/>
<polygon fill="black" stroke="black" points="680.61,-62.65 689.95,-57.64 679.53,-55.74 680.61,-62.65"/>
</g>
<!-- charts -->
<g id="node5" class="node">
<title>charts</title>
<polygon fill="none" stroke="black" points="505,-36 318,-36 318,0 505,0 505,-36"/>
<text text-anchor="middle" x="411.5" y="-14.3" font-family="Times,serif" font-size="14.00">Charts (tasks/cpu/mem)</text>
</g>
<!-- status&#45;&gt;charts -->
<g id="edge4" class="edge">
<title>status&#45;&gt;charts</title>
<path fill="none" stroke="black" d="M282.29,-18C290.67,-18 299.25,-18 307.81,-18"/>
<polygon fill="black" stroke="black" points="307.83,-21.5 317.83,-18 307.83,-14.5 307.83,-21.5"/>
</g>
<!-- tasks -->
<g id="node6" class="node">
<title>tasks</title>
<polygon fill="none" stroke="black" points="647,-36 548,-36 548,0 647,0 647,-36"/>
<text text-anchor="middle" x="597.5" y="-14.3" font-family="Times,serif" font-size="14.00">Tasks Table</text>
</g>
<!-- charts&#45;&gt;tasks -->
<g id="edge5" class="edge">
<title>charts&#45;&gt;tasks</title>
<path fill="none" stroke="black" d="M505.04,-18C516.05,-18 527.04,-18 537.4,-18"/>
<polygon fill="black" stroke="black" points="537.52,-21.5 547.52,-18 537.52,-14.5 537.52,-21.5"/>
</g>
<!-- tasks&#45;&gt;help -->
<g id="edge7" class="edge">
<title>tasks&#45;&gt;help</title>
<path fill="none" stroke="black" d="M647.33,-25.66C657.62,-27.28 668.79,-29.03 680.07,-30.8"/>
<polygon fill="black" stroke="black" points="679.56,-34.27 689.98,-32.36 680.65,-27.35 679.56,-34.27"/>
</g>
</g>
</svg>
